<svg className="bg" width="958" height="400" viewBox="0 0 958 400" fill="none" xmlns="http://www.w3.org/2000/svg">
    <g clip-path="url(#clip0)">
        <path d="M856.197 366.957C877.461 346.796 895.572 323.342 910.829 296.319C936.498 250.843 982.223 207.497 1030.15 183.21C1032.52 182.007 1034.77 179.429 1035.18 177.446C1035.59 175.461 1034.01 174.824 1031.64 176.022C980.201 202.094 931.104 248.655 903.505 297.541C875.121 347.822 836.109 384.814 784.241 410.616C781.879 411.79 779.612 414.364 779.17 416.364C778.729 418.362 780.286 419.029 782.646 417.857C810.517 403.989 834.931 387.12 856.197 366.957Z" fill="white"/>
        <path d="M1055.44 201.122C1004 227.198 954.898 273.759 927.303 322.641C898.919 372.93 859.903 409.918 808.039 435.717C805.677 436.891 803.409 439.463 802.97 441.463C802.527 443.463 804.085 444.13 806.445 442.958C834.313 429.092 858.728 412.226 879.993 392.064C901.255 371.901 919.368 348.448 934.628 321.42C960.291 275.946 1006.02 232.603 1053.95 208.311C1056.32 207.108 1058.57 204.528 1058.98 202.545C1059.39 200.562 1057.81 199.924 1055.44 201.122Z" fill="white"/>
        <path d="M1079.24 226.223C1027.8 252.302 978.702 298.862 951.102 347.742C922.725 398.023 883.718 435.013 831.838 460.817C829.476 461.992 827.209 464.565 826.769 466.564C826.326 468.564 827.884 469.231 830.243 468.058C858.116 454.192 882.533 437.323 903.796 417.16C925.059 397 943.171 373.545 958.424 346.522C984.097 301.046 1029.82 257.703 1077.75 233.411C1080.11 232.208 1082.37 229.629 1082.78 227.646C1083.19 225.663 1081.61 225.025 1079.24 226.223Z" fill="white"/>
    </g>
    <g clip-path="url(#clip1)">
        <path d="M650.197 60.2428C671.461 40.0821 689.572 16.6279 704.829 -10.3954C730.498 -55.8711 776.223 -99.2175 824.154 -123.504C826.518 -124.708 828.771 -127.285 829.181 -129.268C829.593 -131.253 828.009 -131.891 825.643 -130.693C774.201 -104.621 725.104 -58.0594 697.505 -9.17358C669.121 41.1075 630.109 78.0996 578.241 103.902C575.879 105.076 573.612 107.65 573.17 109.65C572.729 111.648 574.286 112.315 576.646 111.143C604.517 97.2749 628.931 80.4059 650.197 60.2428Z" fill="white"/>
        <path d="M849.441 -105.592C797.996 -79.5163 748.898 -32.9548 721.303 15.9273C692.919 66.2158 653.903 103.204 602.039 129.002C599.677 130.177 597.409 132.749 596.97 134.749C596.527 136.749 598.085 137.416 600.445 136.243C628.313 122.378 652.727 105.512 673.993 85.3492C695.255 65.1867 713.368 41.7339 728.628 14.7056C754.291 -30.7682 800.019 -74.1115 847.952 -98.4036C850.316 -99.6068 852.571 -102.186 852.981 -104.169C853.392 -106.152 851.807 -106.79 849.441 -105.592Z" fill="white"/>
        <path d="M873.24 -80.4914C821.798 -54.4121 772.702 -7.85265 745.102 41.0277C716.725 91.3086 677.719 128.299 625.838 154.103C623.476 155.277 621.209 157.851 620.769 159.849C620.326 161.85 621.884 162.516 624.244 161.344C652.116 147.478 676.534 130.609 697.796 110.446C719.059 90.2852 737.171 66.831 752.424 39.8079C778.097 -5.66796 823.818 -49.011 871.751 -73.3031C874.115 -74.5063 876.37 -77.0856 876.78 -79.0686C877.19 -81.0518 875.606 -81.6895 873.24 -80.4914Z" fill="white"/>
    </g>
    <g clip-path="url(#clip2)">
        <path d="M573.364 562.821C554.318 540.554 531.821 521.266 505.614 504.645C461.512 476.683 420.562 428.8 398.76 379.688C397.679 377.266 395.221 374.884 393.261 374.373C391.3 373.86 390.582 375.41 391.657 377.834C415.062 430.542 459.05 481.958 506.459 512.023C555.222 542.943 590.169 583.797 613.283 636.917C614.335 639.336 616.789 641.732 618.764 642.276C620.737 642.818 621.483 641.297 620.433 638.88C608.01 610.336 592.412 585.091 573.364 562.821Z" fill="white"/>
        <path d="M417.943 355.351C441.352 408.064 485.339 459.48 532.745 489.54C581.515 520.461 616.458 561.318 639.569 614.435C640.62 616.854 643.073 619.251 645.048 619.791C647.023 620.336 647.769 618.814 646.719 616.398C634.297 587.856 618.703 562.611 599.655 540.341C580.607 518.075 558.112 498.785 531.9 482.163C487.799 454.206 446.853 406.319 425.046 357.206C423.965 354.784 421.505 352.399 419.545 351.888C417.586 351.377 416.868 352.927 417.943 355.351Z" fill="white"/>
        <path d="M444.229 332.868C467.641 385.578 511.627 436.991 559.031 467.057C607.794 497.97 642.739 538.818 665.854 591.952C666.906 594.37 669.361 596.766 671.334 597.308C673.309 597.853 674.054 596.331 673.004 593.915C660.583 565.369 644.985 540.12 625.937 517.854C606.891 495.586 584.394 476.298 558.187 459.682C514.085 431.716 473.139 383.836 451.331 334.723C450.251 332.301 447.79 329.917 445.831 329.405C443.871 328.894 443.153 330.444 444.229 332.868Z" fill="white"/>
    </g>
    <g clip-path="url(#clip3)">
        <path d="M-6.80302 32.2429C14.4606 12.0821 32.5719 -11.3721 47.8291 -38.3954C73.4981 -83.871 119.223 -127.217 167.154 -151.504C169.518 -152.708 171.771 -155.285 172.181 -157.268C172.593 -159.253 171.009 -159.891 168.643 -158.693C117.201 -132.621 68.1036 -86.0594 40.5049 -37.1736C12.1207 13.1076 -26.8913 50.0996 -78.7594 75.9016C-81.1212 77.0758 -83.388 79.6499 -83.8305 81.6501C-84.2711 83.6482 -82.7136 84.3149 -80.3538 83.1426C-52.4831 69.275 -28.069 52.4059 -6.80302 32.2429Z" fill="white"/>
        <path d="M192.441 -133.592C140.996 -107.516 91.898 -60.9548 64.3033 -12.0728C35.9185 38.2157 -3.0969 75.2042 -54.961 101.002C-57.3228 102.177 -59.5913 104.749 -60.0301 106.749C-60.4726 108.749 -58.915 109.416 -56.5554 108.243C-28.6867 94.3776 -4.27249 77.5119 16.9931 57.3493C38.255 37.1867 56.3685 13.7339 71.6277 -13.2945C97.291 -58.7681 143.019 -102.111 190.952 -126.404C193.316 -127.607 195.571 -130.186 195.981 -132.169C196.392 -134.152 194.807 -134.79 192.441 -133.592Z" fill="white"/>
        <path d="M216.24 -108.491C164.798 -82.4121 115.702 -35.8526 88.102 13.0277C59.7251 63.3087 20.7184 100.299 -31.1624 126.103C-33.524 127.277 -35.7909 129.851 -36.2314 131.85C-36.6739 133.85 -35.1164 134.516 -32.7566 133.344C-4.88433 119.478 19.5334 102.609 40.7957 82.446C62.0593 62.2852 80.1707 38.831 95.4243 11.8079C121.097 -33.668 166.818 -77.0109 214.751 -101.303C217.115 -102.506 219.37 -105.086 219.78 -107.069C220.19 -109.052 218.606 -109.689 216.24 -108.491Z" fill="white"/>
    </g>
    <defs>
        <clipPath id="clip0">
            <rect width="168" height="100" fill="white" transform="translate(790 300)"/>
        </clipPath>
        <clipPath id="clip1">
            <rect width="222" height="140" fill="white" transform="translate(568)"/>
        </clipPath>
        <clipPath id="clip2">
            <rect width="108" height="77" fill="white" transform="translate(388 323)"/>
        </clipPath>
        <clipPath id="clip3">
            <rect width="105" height="120" fill="white"/>
        </clipPath>
    </defs>
</svg>
